<svg width="36" height="36" viewBox="0 0 36 36" fill="none" xmlns="http://www.w3.org/2000/svg">
<path d="M19.7149 4C21.318 4.00427 22.1316 4.01282 22.8341 4.03277L23.1105 4.04275C23.4297 4.05415 23.7446 4.0684 24.1251 4.0855C25.6412 4.15674 26.6757 4.39613 27.5834 4.74809C28.5238 5.11002 29.3161 5.60019 30.1083 6.39103C30.8332 7.10311 31.3939 7.96482 31.7513 8.916C32.1032 9.82368 32.3426 10.8582 32.4139 12.3757C32.431 12.7548 32.4452 13.0697 32.4566 13.3903L32.4652 13.6667C32.4865 14.3678 32.4951 15.1814 32.4979 16.7845L32.4994 17.8475V19.7141C32.5028 20.7535 32.4919 21.7928 32.4666 22.8318L32.458 23.1083C32.4466 23.4289 32.4324 23.7438 32.4153 24.1228C32.3441 25.6404 32.1018 26.6735 31.7513 27.5826C31.3939 28.5337 30.8332 29.3954 30.1083 30.1075C29.3963 30.8324 28.5345 31.3931 27.5834 31.7505C26.6757 32.1024 25.6412 32.3418 24.1251 32.4131L23.1105 32.4558L22.8341 32.4644C22.1316 32.4843 21.318 32.4943 19.7149 32.4971L18.6519 32.4986H16.7867C15.7469 32.5022 14.707 32.4913 13.6675 32.4658L13.3911 32.4572C13.0528 32.4444 12.7146 32.4297 12.3765 32.4131C10.8604 32.3418 9.82592 32.1024 8.91681 31.7505C7.96614 31.3929 7.10493 30.8322 6.39326 30.1075C5.6679 29.3956 5.10671 28.5339 4.7489 27.5826C4.39694 26.6749 4.15755 25.6404 4.08631 24.1228L4.04356 23.1083L4.03643 22.8318C4.01017 21.7928 3.99829 20.7535 4.00081 19.7141V16.7845C3.99687 15.7451 4.00732 14.7058 4.03216 13.6667L4.04213 13.3903C4.05353 13.0697 4.06778 12.7548 4.08488 12.3757C4.15613 10.8582 4.39552 9.82511 4.74747 8.916C5.10612 7.96443 5.66829 7.10269 6.39469 6.39103C7.10595 5.66652 7.96665 5.10585 8.91681 4.74809C9.82592 4.39613 10.859 4.15674 12.3765 4.0855C12.7556 4.0684 13.0719 4.05415 13.3911 4.04275L13.6675 4.0342C14.7066 4.00888 15.7459 3.99796 16.7853 4.00142L19.7149 4ZM18.2501 11.1246C16.3605 11.1246 14.5483 11.8753 13.2122 13.2114C11.8761 14.5475 11.1255 16.3597 11.1255 18.2493C11.1255 20.1389 11.8761 21.951 13.2122 23.2872C14.5483 24.6233 16.3605 25.3739 18.2501 25.3739C20.1397 25.3739 21.9518 24.6233 23.288 23.2872C24.6241 21.951 25.3747 20.1389 25.3747 18.2493C25.3747 16.3597 24.6241 14.5475 23.288 13.2114C21.9518 11.8753 20.1397 11.1246 18.2501 11.1246ZM18.2501 13.9745C18.8115 13.9744 19.3674 14.0849 19.886 14.2996C20.4047 14.5144 20.876 14.8292 21.273 15.226C21.67 15.6229 21.985 16.0941 22.1999 16.6127C22.4148 17.1313 22.5255 17.6872 22.5256 18.2486C22.5257 18.8099 22.4152 19.3658 22.2005 19.8845C21.9857 20.4032 21.6709 20.8745 21.274 21.2715C20.8772 21.6685 20.406 21.9835 19.8874 22.1984C19.3687 22.4133 18.8129 22.524 18.2515 22.5241C17.1178 22.5241 16.0305 22.0737 15.2288 21.272C14.4271 20.4703 13.9767 19.383 13.9767 18.2493C13.9767 17.1155 14.4271 16.0282 15.2288 15.2266C16.0305 14.4249 17.1178 13.9745 18.2515 13.9745M25.7324 8.98725C25.26 8.98725 24.8069 9.17491 24.4729 9.50894C24.1389 9.84297 23.9512 10.296 23.9512 10.7684C23.9512 11.2408 24.1389 11.6938 24.4729 12.0279C24.8069 12.3619 25.26 12.5496 25.7324 12.5496C26.2048 12.5496 26.6578 12.3619 26.9919 12.0279C27.3259 11.6938 27.5135 11.2408 27.5135 10.7684C27.5135 10.296 27.3259 9.84297 26.9919 9.50894C26.6578 9.17491 26.2048 8.98725 25.7324 8.98725Z" fill="#1E252F"/>
</svg>
