<svg width="36" height="36" viewBox="0 0 36 36" fill="none" xmlns="http://www.w3.org/2000/svg">
<path d="M28 4C28.7956 4 29.5587 4.31607 30.1213 4.87868C30.6839 5.44129 31 6.20435 31 7V28C31 28.7956 30.6839 29.5587 30.1213 30.1213C29.5587 30.6839 28.7956 31 28 31H7C6.20435 31 5.44129 30.6839 4.87868 30.1213C4.31607 29.5587 4 28.7956 4 28V7C4 6.20435 4.31607 5.44129 4.87868 4.87868C5.44129 4.31607 6.20435 4 7 4H28ZM27.25 27.25V19.3C27.25 18.0031 26.7348 16.7593 25.8178 15.8422C24.9007 14.9252 23.6569 14.41 22.36 14.41C21.085 14.41 19.6 15.19 18.88 16.36V14.695H14.695V27.25H18.88V19.855C18.88 18.7 19.81 17.755 20.965 17.755C21.522 17.755 22.0561 17.9762 22.4499 18.3701C22.8438 18.7639 23.065 19.298 23.065 19.855V27.25H27.25ZM9.82 12.34C10.4883 12.34 11.1293 12.0745 11.6019 11.6019C12.0745 11.1293 12.34 10.4883 12.34 9.82C12.34 8.425 11.215 7.285 9.82 7.285C9.14768 7.285 8.50289 7.55208 8.02748 8.02748C7.55208 8.50289 7.285 9.14768 7.285 9.82C7.285 11.215 8.425 12.34 9.82 12.34ZM11.905 27.25V14.695H7.75V27.25H11.905Z" fill="#1E252F"/>
</svg>
